<svg width="64" height="64" viewBox="0 0 64 64" fill="none" xmlns="http://www.w3.org/2000/svg">
  <circle cx="32" cy="32" r="30" fill="url(#gradient)"/>
  <path d="M32 18C25.3726 18 20 23.3726 20 30C20 36.6274 25.3726 42 32 42C38.6274 42 44 36.6274 44 30C44 23.3726 38.6274 18 32 18Z" fill="white"/>
  <path d="M32 22C28.134 22 25 25.134 25 29C25 32.866 28.134 36 32 36C35.866 36 39 32.866 39 29C39 25.134 35.866 22 32 22Z" fill="#4361EE"/>
  <path d="M32 38C31.4477 38 31 38.4477 31 39V42C31 42.5523 31.4477 43 32 43C32.5523 43 33 42.5523 33 42V39C33 38.4477 32.5523 38 32 38Z" fill="white"/>
  <path d="M39 39L41 41C41.5523 41.5523 41.5523 42.4477 41 43C40.4477 43.5523 39.5523 43.5523 39 43L37 41C36.4477 40.4477 36.4477 39.5523 37 39C37.5523 38.4477 38.4477 38.4477 39 39Z" fill="white"/>
  <path d="M25 39L23 41C22.4477 41.5523 22.4477 42.4477 23 43C23.5523 43.5523 24.4477 43.5523 25 43L27 41C27.5523 40.4477 27.5523 39.5523 27 39C26.4477 38.4477 25.5523 38.4477 25 39Z" fill="white"/>
  <path d="M42 31H45C45.5523 31 46 30.5523 46 30C46 29.4477 45.5523 29 45 29H42C41.4477 29 41 29.4477 41 30C41 30.5523 41.4477 31 42 31Z" fill="white"/>
  <path d="M19 30C19 30.5523 18.5523 31 18 31C17.4477 31 17 30.5523 17 30C17 29.4477 17.4477 29 18 29C18.5523 29 19 29.4477 19 30Z" fill="white"/>
  <path d="M35.5355 24.4645C35.9261 24.855 35.9261 25.4882 35.5355 25.8787C35.145 26.2692 34.5118 26.2692 34.1213 25.8787L32.7071 24.4645C32.3166 24.0739 32.3166 23.4408 32.7071 23.0502C33.0976 22.6597 33.7308 22.6597 34.1213 23.0502L35.5355 24.4645Z" fill="white"/>
  <path d="M23.0503 34.1213C22.6597 33.7308 22.6597 33.0976 23.0503 32.7071L24.4645 31.2929C24.855 30.9024 25.4882 30.9024 25.8787 31.2929C26.2692 31.6834 26.2692 32.3166 25.8787 32.7071L24.4645 34.1213C24.0739 34.5118 23.4408 34.5118 23.0503 34.1213Z" fill="white"/>
  <path d="M29.8787 25.8787C29.4882 26.2692 28.855 26.2692 28.4645 25.8787L27.0503 24.4645C26.6597 24.0739 26.6597 23.4408 27.0503 23.0502C27.4408 22.6597 28.0739 22.6597 28.4645 23.0502L29.8787 24.4645C30.2692 24.855 30.2692 25.4882 29.8787 25.8787Z" fill="white"/>
  <path d="M38.1213 34.1213C37.7308 34.5118 37.0976 34.5118 36.7071 34.1213L35.2929 32.7071C34.9024 32.3166 34.9024 31.6834 35.2929 31.2929C35.6834 30.9024 36.3166 30.9024 36.7071 31.2929L38.1213 32.7071C38.5118 33.0976 38.5118 33.7308 38.1213 34.1213Z" fill="white"/>
  
  <defs>
    <linearGradient id="gradient" x1="0" y1="0" x2="1" y2="1">
      <stop offset="0%" stop-color="#4361EE"/>
      <stop offset="100%" stop-color="#7209B7"/>
    </linearGradient>
  </defs>
</svg>